PathFileType	4	(X/Y/Z)	C:/Users/opensim2020/Desktop/walking_exp_matlab/subject06_walking13_straight_01.trc																																																																																																																																																				
DataRate	CameraRate	NumFrames	NumMarkers	Units	OrigDataRate	OrigDataStartFrame	OrigNumFrames																																																																																																																																																
100	100	5	50	mm	100	910	163																																																																																																																																																
Frame#	Time	LFHD			RFHD			LBHD			RBHD			C7			T10			CLAV			STRN			RBAK			LSHO			LUPA			LELB			LFRM			LWRA			LWRB			LFIN			RSHO			RUPA			RELB			RFRM			RWRA			RWRB			RFIN			LASI			RASI			LPSI			RPSI			LTHI			LKNE			LTIB			LANK			LHEE			LTOE			RTHI			RKNE			RTIB			RANK			RHEE			RTOE			*39			*40			*41			*42			*43			*44			*45			*46			*47			*48			*49		
		X1	Y1	Z1	X2	Y2	Z2	X3	Y3	Z3	X4	Y4	Z4	X5	Y5	Z5	X6	Y6	Z6	X7	Y7	Z7	X8	Y8	Z8	X9	Y9	Z9	X10	Y10	Z10	X11	Y11	Z11	X12	Y12	Z12	X13	Y13	Z13	X14	Y14	Z14	X15	Y15	Z15	X16	Y16	Z16	X17	Y17	Z17	X18	Y18	Z18	X19	Y19	Z19	X20	Y20	Z20	X21	Y21	Z21	X22	Y22	Z22	X23	Y23	Z23	X24	Y24	Z24	X25	Y25	Z25	X26	Y26	Z26	X27	Y27	Z27	X28	Y28	Z28	X29	Y29	Z29	X30	Y30	Z30	X31	Y31	Z31	X32	Y32	Z32	X33	Y33	Z33	X34	Y34	Z34	X35	Y35	Z35	X36	Y36	Z36	X37	Y37	Z37	X38	Y38	Z38	X39	Y39	Z39	X40	Y40	Z40	X41	Y41	Z41	X42	Y42	Z42	X43	Y43	Z43	X44	Y44	Z44	X45	Y45	Z45	X46	Y46	Z46	X47	Y47	Z47	X48	Y48	Z48	X49	Y49	Z49	X50	Y50	Z50
																																																																																																																																																							
62	0.61	-233.42322	1660.24316	-1084.823	-246.13419	1648.09399	-954.0498	-368.09741	1613.55945	-1098.78186	-379.27039	1606.2865	-970.19373	-382.99017	1454.78479	-1041.62744	-434.17972	1127.9209	-1032.9386	-276.8848	1371.32593	-1033.09351	-245.67369	1195.67236	-1036.91223	-467.9364	1290.15503	-965.76727	-321.664	1406.7887	-1197.7821	-301.33368	1208.04626	-1275.3822	-285.35306	1096.92163	-1293.11792	-207.7233	968.73431	-1314.52661	-108.001	889.33221	-1267.6875	-158.04579	860.23639	-1308.5448	-85.42544	807.00079	-1308.80273	-327.20972	1407.16223	-874.56805	-401.27066	1220.08191	-786.89789	-415.95343	1098.43213	-772.979	-427.36978	978.80286	-753.34186	-401.69751	828.71747	-781.60071	-453.68796	843.51648	-741.03931	-434.73148	761.42798	-736.78473	-258.73419	961.44336	-1132.99524	-263.28137	972.69067	-912.92047	-416.63095	992.50903	-1106.25684	-413.51102	993.44037	-937.83148	-345.81241	647.96887	-1180.59558	-364.74655	484.94223	-1155.67175	-429.66443	234.38033	-1140.71118	-451.29593	65.43581	-1087.5979	-494.21048	54.53066	-1042.32361	-307.18497	34.09912	-1081.97363	-220.23055	654.55853	-857.67377	-168.7672	541.34027	-885.37439	-239.56816	288.28671	-874.49719	-286.06076	105.91591	-906.68457	-329.93814	85.09657	-950.39368	-144.12877	46.38918	-905.56372	-336.34357	1703.61218	-1034.89905	NaN	NaN	NaN	NaN	NaN	NaN	NaN	NaN	NaN	NaN	NaN	NaN	NaN	NaN	NaN	NaN	NaN	NaN	NaN	NaN	NaN	NaN	NaN	NaN	NaN	NaN	NaN	NaN	NaN	NaN
63	0.62	-222.96478	1659.18298	-1084.25586	-235.6839	1646.84546	-953.49609	-357.67331	1612.7312	-1098.46167	-368.88297	1605.17773	-969.84406	-372.76758	1453.85938	-1041.52893	-424.1062	1126.92419	-1033.09412	-266.78317	1370.29114	-1032.9209	-235.58418	1194.64807	-1036.93469	-457.87439	1289.3075	-966.25305	-311.39529	1406.17004	-1197.49084	-289.89325	1207.80493	-1275.38831	-272.98404	1096.71436	-1292.73987	-192.22809	970.6109	-1314.03638	-89.47575	895.03406	-1267.47913	-139.0499	863.82642	-1307.47742	-64.67324	813.14624	-1308.34509	-317.51428	1406.00879	-874.45282	-392.83459	1219.35754	-787.01489	-407.97638	1097.69702	-773.26898	-420.23282	978.11969	-753.71069	-395.77097	827.89624	-782.1474	-447.0405	843.26569	-741.3009	-429.14188	760.88306	-737.14093	-248.46654	960.24695	-1133.13245	-252.8732	971.90118	-913.04132	-406.51926	991.52997	-1106.10156	-403.23972	992.55536	-937.78961	-337.71005	647.1532	-1180.24988	-358.12344	484.25272	-1155.34546	-426.20288	234.55624	-1140.73828	-450.78586	65.74706	-1087.50037	-493.84952	55.0253	-1042.23816	-307.08029	34.02899	-1081.85022	-210.39546	653.77924	-857.33197	-159.05244	540.36511	-885.0603	-218.89862	284.02872	-874.84961	-254.52789	99.26187	-907.62329	-297.16074	76.60044	-951.53625	-109.63934	46.56087	-907.15961	-325.793	1702.64563	-1034.26953	NaN	NaN	NaN	NaN	NaN	NaN	NaN	NaN	NaN	NaN	NaN	NaN	NaN	NaN	NaN	NaN	NaN	NaN	NaN	NaN	NaN	NaN	NaN	NaN	NaN	NaN	NaN	NaN	NaN	NaN
64	0.63	-212.4552	1658.026	-1083.57397	-225.39317	1645.53381	-952.93085	-347.17715	1611.703	-1097.99109	-358.54065	1604.047	-969.47247	-362.58777	1452.81567	-1041.40979	-413.97424	1125.94641	-1033.17041	-256.6185	1369.14893	-1032.66589	-225.54236	1193.48096	-1036.86951	-447.88812	1288.25549	-966.68231	-301.10785	1405.50574	-1197.25696	-278.37741	1207.32886	-1275.02368	-260.97769	1096.34741	-1292.31165	-177.063	972.35651	-1313.43005	-71.69924	900.54175	-1267.17908	-120.46981	867.33032	-1306.302	-44.47937	819.0199	-1307.28784	-307.80093	1404.78247	-874.28888	-384.44064	1218.53503	-787.3418	-399.89438	1096.88867	-773.52679	-412.80737	977.36731	-754.08813	-389.41611	827.01843	-782.49121	-440.76147	842.64673	-741.60693	-423.12778	760.20502	-737.47369	-238.65488	959.07959	-1133.12488	-242.65099	970.83081	-912.98578	-396.48019	990.44153	-1105.97766	-392.93381	991.52094	-937.60577	-329.54337	646.17548	-1179.94885	-351.30911	483.29654	-1154.61426	-422.99905	234.504	-1140.69336	-450.30658	66.04612	-1087.4436	-493.49896	55.51914	-1042.26282	-307.36823	33.74796	-1081.55359	-201.25592	652.47211	-856.85205	-149.63982	538.93793	-884.68286	-198.35796	279.92114	-875.13037	-223.05466	93.47408	-908.59149	-264.49521	69.23614	-952.72784	-75.7215	47.53701	-908.4939	-315.31863	1701.51782	-1033.74072	NaN	NaN	NaN	NaN	NaN	NaN	NaN	NaN	NaN	NaN	NaN	NaN	NaN	NaN	NaN	NaN	NaN	NaN	NaN	NaN	NaN	NaN	NaN	NaN	NaN	NaN	NaN	NaN	NaN	NaN
65	0.64	-201.88869	1656.70776	-1082.94226	-214.96832	1644.0509	-952.26837	-336.6636	1610.57825	-1097.55701	-348.27908	1602.72205	-968.99011	-352.22482	1451.54126	-1041.2572	-403.69052	1124.69226	-1033.10327	-246.42738	1367.88489	-1032.34485	-215.27863	1192.22034	-1036.69629	-437.98761	1286.99487	-967.10583	-290.70477	1404.61951	-1196.86719	-266.8468	1206.70581	-1274.66492	-249.07358	1095.74011	-1291.73901	-162.19574	973.92621	-1312.73267	-54.28614	906.03302	-1266.6947	-102.37523	870.72998	-1304.91418	-24.55247	825.03583	-1306.02612	-298.19519	1403.50488	-874.06598	-375.82172	1217.58386	-787.57941	-391.66467	1095.99255	-773.78986	-405.28055	976.51801	-754.40405	-382.56552	826.08081	-782.71222	-434.23645	841.89111	-741.90369	-416.79471	759.42242	-737.70703	-228.47867	957.63	-1133.1189	-232.11639	969.54413	-912.81445	-386.27625	989.2384	-1105.83545	-382.50247	990.37854	-937.39502	-321.47134	644.95532	-1179.97461	-344.56693	482.29404	-1154.3905	-419.64957	234.37935	-1140.65369	-449.78635	66.289	-1087.39087	-493.20096	56.09751	-1042.19031	-307.20587	33.66011	-1081.47559	-192.49927	650.68896	-856.35779	-140.88889	537.08392	-884.03625	-177.90395	276.00748	-875.36328	-191.70261	88.53884	-909.66632	-232.02821	62.94236	-954.05237	-42.55607	49.17251	-909.87024	-304.78937	1700.25769	-1033.12451	NaN	NaN	NaN	NaN	NaN	NaN	NaN	NaN	NaN	NaN	NaN	NaN	NaN	NaN	NaN	NaN	NaN	NaN	NaN	NaN	NaN	NaN	NaN	NaN	NaN	NaN	NaN	NaN	NaN	NaN
66	0.65	-191.2739	1655.26758	-1082.27063	-204.60101	1642.49231	-951.51587	-326.0863	1609.30371	-1097.09924	-337.97433	1601.32874	-968.54156	-342.03586	1450.18616	-1041.02258	-393.26016	1123.3363	-1033.00037	-236.12634	1366.52332	-1031.95618	-204.95261	1190.84668	-1036.49561	-427.67841	1285.62341	-967.52435	-280.15558	1403.39368	-1196.31482	-255.3864	1205.88416	-1274.15479	-237.34526	1095.00903	-1291.16992	-147.65486	975.3493	-1311.91907	-36.90689	911.57922	-1266.26245	-84.7575	874.1712	-1303.49731	-5.37293	830.9071	-1304.80298	-288.49637	1402.1217	-873.84253	-366.88297	1216.51343	-787.65704	-383.37894	1094.97266	-774.07574	-397.63916	975.59106	-754.66815	-375.30524	825.04303	-782.74432	-427.07336	841.15521	-742.43335	-410.02045	758.53577	-737.89532	-218.14844	955.98169	-1133.01648	-221.64005	967.97638	-912.67523	-375.88986	987.96313	-1105.69409	-371.97055	989.13495	-937.15259	-313.10489	643.69543	-1179.69348	-337.91418	481.20096	-1154.17102	-416.31656	234.17255	-1140.65588	-449.1918	66.60702	-1087.30591	-492.76083	56.77673	-1042.13623	-307.01151	33.45924	-1081.39075	-184.18193	648.4762	-855.7403	-132.53949	534.75854	-883.23938	-157.45911	272.3949	-875.33685	-160.82533	84.66872	-910.64636	-199.86595	57.78683	-955.32013	-9.87484	51.6031	-911.2605	-294.18088	1698.85181	-1032.46631	NaN	NaN	NaN	NaN	NaN	NaN	NaN	NaN	NaN	NaN	NaN	NaN	NaN	NaN	NaN	NaN	NaN	NaN	NaN	NaN	NaN	NaN	NaN	NaN	NaN	NaN	NaN	NaN	NaN	NaN
